<svg width="32" height="32" viewBox="0 0 32 32" fill="none" xmlns="http://www.w3.org/2000/svg">
<circle cx="16" cy="16" r="16" fill="white"/>
<path d="M20.1667 7.66669H11.8334C9.53217 7.66669 7.66669 9.53217 7.66669 11.8334V20.1667C7.66669 22.4679 9.53217 24.3334 11.8334 24.3334H20.1667C22.4679 24.3334 24.3334 22.4679 24.3334 20.1667V11.8334C24.3334 9.53217 22.4679 7.66669 20.1667 7.66669Z" stroke="#191919" stroke-linecap="round" stroke-linejoin="round"/>
<path d="M19.3333 15.475C19.4362 16.1685 19.3177 16.8769 18.9948 17.4992C18.6719 18.1215 18.1609 18.6262 17.5347 18.9414C16.9084 19.2566 16.1987 19.3663 15.5065 19.2549C14.8143 19.1436 14.1748 18.8167 13.679 18.321C13.1832 17.8252 12.8564 17.1857 12.745 16.4935C12.6336 15.8013 12.7434 15.0916 13.0586 14.4653C13.3738 13.8391 13.8785 13.3281 14.5008 13.0052C15.1231 12.6823 15.8314 12.5638 16.525 12.6667C17.2324 12.7716 17.8874 13.1012 18.3931 13.6069C18.8988 14.1126 19.2284 14.7676 19.3333 15.475Z" stroke="#191919" stroke-linecap="round" stroke-linejoin="round"/>
<path d="M20.5833 11.4167H20.5916" stroke="#191919" stroke-linecap="round" stroke-linejoin="round"/>
</svg>
